<svg xmlns="http://www.w3.org/2000/svg" width="32" height="32" fill="none" viewBox="0 0 32 32" id="arrow-right">
  <path fill="#fff" fill-rule="evenodd" d="M16 6C10.4772 6 6 10.4772 6 16C6 21.5228 10.4772 26 16 26C21.5228 26 26 21.5228 26 16C26 10.4772 21.5228 6 16 6ZM4 16C4 9.37258 9.37258 4 16 4C22.6274 4 28 9.37258 28 16C28 22.6274 22.6274 28 16 28C9.37258 28 4 22.6274 4 16Z" clip-rule="evenodd"></path>
  <path fill="#fff" fill-rule="evenodd" d="M13.5829 11.0529C13.9735 10.6624 14.6066 10.6624 14.9971 11.0529L17.8293 13.885C18.388 14.4471 18.7016 15.2075 18.7016 16C18.7016 16.7926 18.388 17.5529 17.8292 18.115L17.8271 18.1171L14.9971 20.9471C14.6066 21.3376 13.9735 21.3376 13.5829 20.9471C13.1924 20.5566 13.1924 19.9234 13.5829 19.5329L16.4108 16.705C16.4111 16.7047 16.4114 16.7044 16.4117 16.7041C16.5974 16.5168 16.7016 16.2638 16.7016 16C16.7016 15.7362 16.5974 15.4832 16.4117 15.2959L13.5829 12.4671C13.1924 12.0766 13.1924 11.4434 13.5829 11.0529Z" clip-rule="evenodd"></path>
</svg>