<svg xmlns="http://www.w3.org/2000/svg" fill="none" viewBox="0 0 32 32">
  <path fill="#fff" fill-rule="evenodd" d="M16 6C10.4772 6 6 10.4772 6 16s4.4772 10 10 10 10-4.4772 10-10S21.5228 6 16 6ZM4 16C4 9.37258 9.37258 4 16 4c6.6274 0 12 5.37258 12 12 0 6.6274-5.3726 12-12 12-6.62742 0-12-5.3726-12-12Z" clip-rule="evenodd"/>
  <path fill="#fff" fill-rule="evenodd" d="M18.4172 11.0529c.3905.3905.3905 1.0237 0 1.4142l-2.8279 2.8279-.0009.0009c-.1857.1873-.2899.4403-.2899.7041 0 .2638.1042.5169.2899.7041l.0009.0009 2.8279 2.8279c.3905.3905.3905 1.0237 0 1.4142-.3906.3905-1.0237.3905-1.4143 0l-2.83-2.83-.0021-.0021c-.5587-.5621-.8723-1.3224-.8723-2.115 0-.7925.3136-1.5529.8723-2.115l.0021-.0021 2.83-2.83c.3906-.3905 1.0237-.3905 1.4143 0Z" clip-rule="evenodd"/>
</svg>